<?xml version="1.0" encoding="UTF-8"?>
<!--Generator: Apple Native CoreSVG 232.5-->
<!DOCTYPE svg
PUBLIC "-//W3C//DTD SVG 1.1//EN"
       "http://www.w3.org/Graphics/SVG/1.1/DTD/svg11.dtd">
<svg version="1.1" xmlns="http://www.w3.org/2000/svg" xmlns:xlink="http://www.w3.org/1999/xlink" width="23.3887" height="17.9785">
 <g>
  <rect height="17.9785" opacity="0" width="23.3887" x="0" y="0"/>
  <path d="M3.06641 17.9785L19.9609 17.9785C22.0117 17.9785 23.0273 16.9727 23.0273 14.9609L23.0273 3.02734C23.0273 1.01562 22.0117 0 19.9609 0L3.06641 0C1.02539 0 0 1.01562 0 3.02734L0 14.9609C0 16.9727 1.02539 17.9785 3.06641 17.9785ZM3.08594 16.4062C2.10938 16.4062 1.57227 15.8887 1.57227 14.873L1.57227 3.11523C1.57227 2.09961 2.10938 1.57227 3.08594 1.57227L19.9414 1.57227C20.9082 1.57227 21.4551 2.09961 21.4551 3.11523L21.4551 14.873C21.4551 15.8887 20.9082 16.4062 19.9414 16.4062Z" fill="#000000" fill-opacity="0.85"/>
  <path d="M4.88281 5.56641L6.06445 5.56641C6.47461 5.56641 6.81641 5.22461 6.81641 4.81445C6.81641 4.4043 6.46484 4.0625 6.06445 4.0625L4.88281 4.0625C4.46289 4.0625 4.14062 4.4043 4.14062 4.81445C4.14062 5.22461 4.47266 5.56641 4.88281 5.56641ZM4.88281 8.81836L6.06445 8.81836C6.46484 8.81836 6.81641 8.48633 6.81641 8.07617C6.81641 7.66602 6.47461 7.33398 6.06445 7.33398L4.88281 7.33398C4.46289 7.33398 4.14062 7.66602 4.14062 8.07617C4.14062 8.48633 4.46289 8.81836 4.88281 8.81836ZM8.79883 5.42969L18.2715 5.42969C18.6133 5.42969 18.877 5.15625 18.877 4.81445C18.877 4.47266 18.6133 4.20898 18.2715 4.20898L8.79883 4.20898C8.45703 4.20898 8.19336 4.47266 8.19336 4.81445C8.19336 5.15625 8.45703 5.42969 8.79883 5.42969ZM8.79883 8.69141L18.2715 8.69141C18.6133 8.69141 18.877 8.42773 18.877 8.07617C18.877 7.73438 18.6133 7.46094 18.2715 7.46094L8.79883 7.46094C8.4668 7.46094 8.19336 7.72461 8.19336 8.07617C8.19336 8.41797 8.45703 8.69141 8.79883 8.69141Z" fill="#000000" fill-opacity="0.85"/>
 </g>
</svg>
